<svg width="32" height="32" viewBox="0 0 32 32" fill="none" xmlns="http://www.w3.org/2000/svg">
<path d="M6 6L26 26M6 26L26 6" stroke="#94CF96" stroke-width="2.66667" stroke-linecap="round" stroke-linejoin="round"/>
<path d="M16.433 9.25C16.2406 9.58333 15.7594 9.58333 15.567 9.25L12.9689 4.75C12.7765 4.41667 13.017 4 13.4019 4L18.5981 4C18.983 4 19.2235 4.41667 19.0311 4.75L16.433 9.25Z" fill="#94CF96"/>
<path d="M15.567 22.75C15.7594 22.4167 16.2406 22.4167 16.433 22.75L19.0311 27.25C19.2235 27.5833 18.983 28 18.5981 28H13.4019C13.017 28 12.7765 27.5833 12.9689 27.25L15.567 22.75Z" fill="#94CF96"/>
<path d="M22.75 16.433C22.4167 16.2406 22.4167 15.7594 22.75 15.567L27.25 12.9689C27.5833 12.7765 28 13.017 28 13.4019L28 18.5981C28 18.983 27.5833 19.2235 27.25 19.0311L22.75 16.433Z" fill="#94CF96"/>
<path d="M9.25 15.567C9.58333 15.7594 9.58333 16.2406 9.25 16.433L4.75 19.0311C4.41667 19.2235 4 18.983 4 18.5981L4 13.4019C4 13.017 4.41667 12.7765 4.75 12.9689L9.25 15.567Z" fill="#94CF96"/>
</svg>
