<svg width="22" height="20" viewBox="0 0 22 20" fill="none" xmlns="http://www.w3.org/2000/svg">
<path d="M20 9C20 8.44772 19.5523 8 19 8C18.4477 8 18 8.44772 18 9H20ZM4 9C4 8.44772 3.55228 8 3 8C2.44772 8 2 8.44772 2 9H4ZM20.2929 11.7071C20.6834 12.0976 21.3166 12.0976 21.7071 11.7071C22.0976 11.3166 22.0976 10.6834 21.7071 10.2929L20.2929 11.7071ZM11 1L11.7071 0.292893C11.3166 -0.0976311 10.6834 -0.0976311 10.2929 0.292893L11 1ZM0.292893 10.2929C-0.0976311 10.6834 -0.0976311 11.3166 0.292893 11.7071C0.683418 12.0976 1.31658 12.0976 1.70711 11.7071L0.292893 10.2929ZM5 20H17V18H5V20ZM20 17V9H18V17H20ZM4 17V9H2V17H4ZM21.7071 10.2929L11.7071 0.292893L10.2929 1.70711L20.2929 11.7071L21.7071 10.2929ZM10.2929 0.292893L0.292893 10.2929L1.70711 11.7071L11.7071 1.70711L10.2929 0.292893ZM17 20C18.6569 20 20 18.6569 20 17H18C18 17.5523 17.5523 18 17 18V20ZM5 18C4.44772 18 4 17.5523 4 17H2C2 18.6569 3.34315 20 5 20V18Z" fill="#24A0FF"/>
</svg>
