<svg width="44" height="44" viewBox="0 0 44 44" fill="none" xmlns="http://www.w3.org/2000/svg">
<rect width="44" height="44" fill="#24A0FF"/>
<path fill-rule="evenodd" clip-rule="evenodd" d="M21.9992 10C15.373 10 10 15.5083 10 22.3047C10 27.7399 13.438 32.3516 18.2072 33.9788C18.8072 34.0918 19.0262 33.7119 19.0262 33.3859C19.0262 33.0936 19.0157 32.32 19.0097 31.2934C15.6715 32.0371 14.9673 29.644 14.9673 29.644C14.422 28.2229 13.6353 27.8445 13.6353 27.8445C12.5455 27.0809 13.7177 27.0963 13.7177 27.0963C14.9215 27.1831 15.5552 28.3643 15.5552 28.3643C16.6262 30.2445 18.364 29.7016 19.048 29.3863C19.1568 28.5912 19.4672 28.0491 19.81 27.7415C17.1452 27.4308 14.344 26.3757 14.344 21.661C14.344 20.3176 14.8113 19.2195 15.5793 18.359C15.4555 18.0475 15.0438 16.7971 15.6963 15.103C15.6963 15.103 16.7042 14.7724 18.9962 16.3642C19.954 16.0912 20.98 15.9551 22.0008 15.9497C23.02 15.9551 24.0467 16.0912 25.0052 16.3642C27.2957 14.7724 28.3015 15.103 28.3015 15.103C28.9563 16.7971 28.5445 18.0475 28.4207 18.359C29.1902 19.2195 29.6545 20.3176 29.6545 21.661C29.6545 26.3873 26.8488 27.4277 24.1758 27.7322C24.6063 28.1121 24.9903 28.8627 24.9903 30.0108C24.9903 31.6556 24.9753 32.9821 24.9753 33.3859C24.9753 33.715 25.1913 34.0979 25.8003 33.9772C30.565 32.347 34 27.7384 34 22.3047C34 15.5083 28.627 10 21.9992 10Z" fill="white"/>
</svg>
