<svg width="44" height="44" viewBox="0 0 44 44" fill="none" xmlns="http://www.w3.org/2000/svg">
<rect width="44" height="44" fill="#24A0FF"/>
<path fill-rule="evenodd" clip-rule="evenodd" d="M34 34H28.6957V25.563C28.6957 23.3547 27.866 21.8471 26.0414 21.8471C24.6458 21.8471 23.8697 22.8644 23.5085 23.8449C23.373 24.1968 23.3942 24.6871 23.3942 25.1773V34H18.1392C18.1392 34 18.207 19.0548 18.1392 17.6962H23.3942V20.255C23.7046 19.1362 25.3838 17.5395 28.0635 17.5395C31.388 17.5395 34 19.8846 34 24.9345V34ZM12.825 15.6569H12.7912C11.0978 15.6569 10 14.4106 10 12.8308C10 11.2202 11.1303 10 12.8575 10C14.5833 10 15.6444 11.2171 15.6783 12.8262C15.6783 14.406 14.5832 15.6569 12.825 15.6569ZM10.6053 17.6962H15.2832V34H10.6053V17.6962Z" fill="white"/>
</svg>
