<svg width="44" height="44" viewBox="0 0 44 44" fill="none" xmlns="http://www.w3.org/2000/svg">
<path fill-rule="evenodd" clip-rule="evenodd" d="M42.1581 15.9521C37.6234 0.832616 31.0715 -2.69425 15.9519 1.84189C0.833775 6.37664 -2.69446 12.9285 1.84167 28.048C6.37781 43.1662 12.9297 46.6945 28.0479 42.1583C43.1674 37.6222 46.6942 31.0703 42.1581 15.9521ZM34.5117 25.7669L31.6614 26.7212L32.6486 29.6719C33.0487 30.8654 32.4052 32.1579 31.2104 32.5581C30.9505 32.646 30.6865 32.6832 30.428 32.6763C29.4957 32.6516 28.6364 32.0548 28.3242 31.1198L27.3356 28.1704L21.4575 30.1394L22.4447 33.0888C22.8448 34.2837 22.2013 35.5762 21.0065 35.9763C20.7466 36.0629 20.4826 36.1001 20.2241 36.0932C19.2918 36.0698 18.4325 35.4717 18.1203 34.5381L17.1317 31.5873L14.2813 32.5429C14.0214 32.6295 13.7561 32.6667 13.4976 32.6598C12.5667 32.6364 11.7073 32.0383 11.3938 31.1033C10.9937 29.9098 11.6372 28.6173 12.8321 28.2172L15.6838 27.2615L13.7877 21.6034L10.9373 22.559C10.6775 22.6457 10.4134 22.6828 10.1536 22.6759C9.22268 22.6525 8.36332 22.0544 8.04982 21.1194C7.64969 19.9259 8.29454 18.6334 9.48804 18.2333L12.3398 17.2777L11.3512 14.3283C10.9511 13.1334 11.5945 11.8409 12.7894 11.4422C13.9843 11.042 15.2768 11.6855 15.6769 12.8804L16.6642 15.8298L22.5437 13.8608L21.5551 10.9114C21.155 9.71652 21.7998 8.424 22.9933 8.02388C24.1882 7.62375 25.4807 8.26865 25.8808 9.46215L26.8681 12.4129L29.7198 11.4573C30.9147 11.0571 32.2058 11.702 32.606 12.8955C33.0061 14.0904 32.3626 15.3829 31.1677 15.783L28.3174 16.7373L30.2121 22.3968L33.0638 21.4412C34.2573 21.0424 35.5498 21.6859 35.95 22.8794C36.3501 24.0743 35.7066 25.3668 34.5117 25.7669ZM18.1131 20.1551L20.0078 25.8132L25.8873 23.8443L23.9926 18.1861L18.1131 20.1551Z" fill="#24A0FF"/>
</svg>
